<svg xmlns="http://www.w3.org/2000/svg" version="1.1" xmlns:xlink="http://www.w3.org/1999/xlink" xmlns:svgjs="http://svgjs.dev/svgjs" width="1920" height="1080" preserveAspectRatio="none" viewBox="0 0 1920 1080">
    <g mask="url(&quot;#SvgjsMask1027&quot;)" fill="none">
        <path d="M1317.26-195.55C1168.04-187.15 1055.39 83.35 788.63 83.68 521.87 84.01 524.32-51.32 260.01-51.32-4.31-51.32-132.23 82.62-268.62 83.68" stroke="rgba(79, 79, 79, 0.06)" stroke-width="2"></path>
        <path d="M791.15-99.37C616.34 30.98 710.06 683.99 415.45 687.8 120.85 691.61-118.49 261.06-335.94 245" stroke="rgba(79, 79, 79, 0.06)" stroke-width="2"></path>
        <path d="M659.22-35.32C485.94 7.24 508.49 389.12 160.9 475.66-186.68 562.2-163.11 950.08-337.41 994.06" stroke="rgba(79, 79, 79, 0.06)" stroke-width="2"></path>
        <path d="M1345.31-19.43C1040.94 68.9 957.27 914.24 502.22 927.28 47.18 940.32-120.37 670.98-340.86 668.08" stroke="rgba(79, 79, 79, 0.06)" stroke-width="2"></path>
        <path d="M1290.65-27.55C1034.01 4.97 884.86 587.53 460.03 589.55 35.19 591.57-153.09 333.34-370.6 330.35" stroke="rgba(79, 79, 79, 0.06)" stroke-width="2"></path>
        <path d="M653.7 1090.07C848.34 1081.58 945.42 787.75 1356.82 754.02 1768.22 720.29 1841.78 253.27 2059.94 224.82" stroke="rgba(79, 79, 79, 0.06)" stroke-width="2"></path>
        <path d="M1165.87 1095.94C1380.93 976.81 1405.01 254.31 1668.38 250.61 1931.75 246.91 1994.24 734.21 2170.89 779.81" stroke="rgba(79, 79, 79, 0.06)" stroke-width="2"></path>
        <path d="M763.44 1216.82C1009.56 1132.12 1079.95 409.43 1417.53 406.79 1755.1 404.15 1870.94 857.8 2071.61 881.99" stroke="rgba(79, 79, 79, 0.06)" stroke-width="2"></path>
        <path d="M447.74 1139.29C715.44 1106.45 824.49 531.36 1318.21 502 1811.92 472.64 1958.34 203.87 2188.67 199.6" stroke="rgba(79, 79, 79, 0.06)" stroke-width="2"></path>
        <path d="M239.07 1186.06C531.3 1129.23 606.12 425.74 1119.97 384.79 1633.83 343.84 1770.56 117.8 2000.88 114.79" stroke="rgba(79, 79, 79, 0.06)" stroke-width="2"></path>
    </g>
    <defs>
        <mask id="SvgjsMask1027">
            <rect width="1920" height="1080" fill="#ffffff"></rect>
        </mask>
    </defs>
</svg>
